# xmcd
#
# Track frame offsets: 
#        150
#        22677
#        39384
#        65772
#        89167
#        110803
#        129519
#        148802
#        166884
#        182773
#        208953
#        228195
#        246578
#        265038
#        283737
#        303731
#        320620
#        337617
#
# Disc length: 4719 seconds
#
# Revision: 0
# Processed by: cddbd v1.5.2PL0 Copyright (c) Steve Scherf et al.
# Submitted via: ExactAudioCopy v0.99pb5
#
DISCID=11126d12
DTITLE=Va  - Hard and Heavy Time Life Box Set - Disc 2
DYEAR=1900
DGENRE=
TTITLE0=George Thorogood and The Destroyers - Bad  To The Bone
TTITLE1=Billy Squier - The Stroke
TTITLE2=Deep Purple - Woman From Tokyo
TTITLE3=Slaughter - Fly To The Angels
TTITLE4=Billy Idol - Rebel Yell
TTITLE5=Stryper - To Hell With The Devil
TTITLE6=Dio - Rainbow In The Dark
TTITLE7=Tubes, The - She's A Beauty
TTITLE8=Pat Benatar - Heartbreaker
TTITLE9=Queensryche - Silent Lucidity
TTITLE10=Great White - Rock Me
TTITLE11=Sweet - Ballroom Blitz
TTITLE12=Megadeth - Peace Sells
TTITLE13=Heart - Never
TTITLE14=Vixen - Edge Of A Broken Heart
TTITLE15=Rush - New World Man
TTITLE16=Poison - Nothin' But A Good Time
TTITLE17=Quiet Riot - Mama Weer All Crazee Now
EXTD=
EXTT0=
EXTT1=
EXTT2=
EXTT3=
EXTT4=
EXTT5=
EXTT6=
EXTT7=
EXTT8=
EXTT9=
EXTT10=
EXTT11=
EXTT12=
EXTT13=
EXTT14=
EXTT15=
EXTT16=
EXTT17=
PLAYORDER=
